<?xml version="1.0" encoding="UTF-8"?><svg id="uuid-59d8c1f4-1c83-44cd-98c9-7dfe286f67c0" xmlns="http://www.w3.org/2000/svg" xmlns:xlink="http://www.w3.org/1999/xlink" viewBox="0 0 2000 600"><defs><clipPath id="uuid-5d7dd487-2fad-4b58-b0e7-5d365a211565"><path d="M933.513806,123.187615c-17.440974,5.857336-66.664953,39.136502-88.824647,58.856909,0,0-.968282,9.58636,7.796596,26.358404,7.885731,15.102479,17.148396,21.392323,17.148396,21.392323,28.837161-6.918145,84.300115-28.273517,99.069543-39.25055,14.769469-10.96252,25.747771-43.911173,20.661964-53.642888-2.385477-4.559343-10.982506-9.150278-21.24034-12.132433-7.055473-2.05149-14.899131-3.343894-22.042186-3.343181-4.612273.000423-8.935162.540852-12.569326,1.761417" fill="none" stroke-width="0"/></clipPath></defs><path d="M190.893405,511.204979v-189.085326h-65.893405v-16.435932c0-6.575498,2.304217-12.163022,6.918354-16.768105,4.608434-4.602332,10.209613-6.905014,16.795086-6.905014h156.777106v40.109034h-68.7583v189.085341h-45.838841Z" fill="#33558a" stroke-width="0"/><path d="M551.874372,511.204948h-19.931347c-6.775473,0-12.315886-2.091301-16.600791-6.30268-4.302432-4.202833-6.441901-9.620433-6.441901-16.258642v-90.21934c0-10.611731-3.280865-18.347084-9.828146-23.217433-6.555951-4.861896-13.890483-7.299821-22.024077-7.299821s-15.362748,2.438018-21.687523,7.299821c-6.336491,4.870349-9.488763,12.605671-9.488763,23.217433v112.780693h-48.70383v-103.492651c0-30.073051,7.887688-50.192098,23.670865-60.371156,15.775346-10.170512,33.226722-15.691238,52.348442-16.58216,19.556506,0,37.557899,5.088162,54.015802,15.252878,16.437672,10.181917,24.670958,30.750729,24.670958,61.700439v103.49262h.000311Z" fill="#33558a" stroke-width="0"/><path d="M783.933659,511.204917v-179.558898c0-5.828769,2.220702-10.783536,6.656575-14.866819,4.441529-4.077689,9.835169-6.1193,16.178124-6.1193h83.097151c23.671766,0,41.227869,4.664143,52.648047,13.992708,11.828705,9.71666,17.760335,23.902025,17.760335,42.556142,0,12.439911-2.968768,22.737493-8.883058,30.895544-5.074302,7.78147-13.111591,13.409021-24.100369,16.908631,9.717266,3.117218,16.491807,7.778611,20.297455,13.989865,3.802852,5.831814,6.124303,15.74399,6.97579,29.733855l1.265856,23.902134v7.577206c0,2.728953.207154,5.248017.638553,7.580034,1.268591,6.996362,3.805835,11.467942,7.611483,13.408927h-47.135571c-2.166754-3.843996-3.455109-7.878707-3.882593-12.118614-.863855-6.153204-1.291339-10.39311-1.291339-12.702318l-.641225-21.361347c-.869635-11.543394-3.45225-19.815277-7.747659-24.823791-4.743589-4.222815-13.135395-6.346995-25.184367-6.346995h-48.4243v77.353096h-45.838825l-.000062-.000062ZM829.772484,396.607791h51.163414c11.092075,0,19.307555-2.074085,24.655078-6.230801,5.333539-4.151122,8.01709-10.57214,8.01709-19.26843,0-8.687962-2.683551-15.106121-8.01709-19.271289-4.930916-4.534012-12.330212-6.798283-22.192293-6.798283h-53.6262v51.568741h0v.000062Z" fill="#3bb54a" stroke-width="0"/><polygon points="1115.619384 346.441254 1068.519986 346.441254 1049.654458 432.405118 1064.836036 491.88412 1095.321308 399.773566 1128.649725 486.822952 1141.79678 427.00338 1115.619384 346.441254 1115.619384 346.441254" fill="#f79520" stroke-width="0"/><path d="M1410.488059,511.204948v-89.177729c0-16.789392,2.560551-30.877116,7.687496-42.291171,5.121102-11.394602,12.135986-20.54622,21.056335-27.432479,8.461292-6.459708,18.383039-11.19096,29.75132-14.204819,11.359579-3.008265,23.062487-4.519328,35.094554-4.519328h6.68299v45.838841h-17.104193c-12.666518,0-22.052636,3.155007-28.158231,9.459241-6.119766,6.312966-9.171196,16.221786-9.171196,29.740567v92.586908h-45.838825l-.000249-.000031Z" fill="#f79520" stroke-width="0"/><path d="M1576.843956,333.981843v65.03345l56.760976-65.435979h56.092093l-63.437005,68.112103,64.106137,109.513563h-57.20549l-32.086382-59.96412c-6.543769-11.995211-12.222626-17.090706-17.024514-15.324058-4.810216,1.778053-7.205691,4.448148-7.205691,7.995709v67.292469h-45.838825v-229.194267h23.577109c6.105595,0,11.345781,2.226933,15.717824,6.663676,4.355137,4.445305,6.543893,9.555251,6.543893,15.324042v29.983536h0l-.000124-.000124Z" fill="#f79520" stroke-width="0"/><path d="M1694.305993,454.220255h44.644506c.428105,8.760991,3.711363,15.327507,9.846667,19.693894,6.56689,4.383292,15.316568,6.569376,26.260597,6.569376,7.882033,0,14.658624-1.531122,20.354511-4.598961,5.248142-3.059292,7.879174-7.221416,7.879174-12.469526,0-7.884923-9.192079-13.790791-27.570395-17.731807-7.884892-1.309953-13.790853-2.6255-17.731932-3.935329-23.206805-5.681934-38.735686-12.478103-46.614859-20.351714-8.761115-7.879236-13.130298-18.389659-13.130298-31.514146,0-16.628883,6.339785-30.419581,19.039244-41.366531,13.13005-10.062367,30.204161-15.097979,51.210774-15.097979,22.750358,0,40.921707,5.035519,54.494281,15.097979,12.684915,10.946981,19.46971,25.174206,20.348669,42.676484h-28.230811c-6.357998,0-12.151827-2.461709-16.316908-7.303147-2.164225-2.515668-3.777785-5.299085-6.28911-7.543831-6.477811-5.790185-14.876107-7.475275-23.351036-7.475275-8.75838,0-15.324772,1.312812-19.693956,3.938188-3.937964,2.62823-5.911424,6.569268-5.911431,11.817488-.000007,5.377983,6.210008,8.659857,10.375248,10.588465,9.467267,4.383577,19.954052,6.290844,30.037419,8.702364,18.019185,4.309435,38.240852,8.388795,52.817052,20.757573,8.310262,7.876377,12.478072,18.384034,12.478072,31.517005,0,19.265696-7.008544,34.13688-21.01519,44.644475-13.13005,9.634262-32.824006,14.442893-59.087213,14.442893-24.950675,0-43.552863-5.029801-55.804204-15.103572-12.702193-10.059508-19.038995-24.718101-19.038995-43.983796,0,0,0-1.970415.000124-1.97057Z" fill="#f79520" stroke-width="0"/><path d="M1547.478291,216.074889c-5.807264-7.010408-16.201244-7.978819-23.208918-2.165931l-134.121717,111.22227c-.380994.323814-.736256.658939-1.094378.999875,8.76385,6.744024,15.94903,15.407653,20.957015,25.260038.401007-.27779.799279-.558656,1.180272-.885204l134.118733-111.219318c7.013392-5.815934,7.973272-16.204057,2.168867-23.211622" fill="#33558a" stroke-width="0"/><path d="M1383.936651,322.522028c-4.999284-3.200114-13.081322-2.191599-17.487549,1.466872l-2.446688,2.028465c9.273747,5.870209,17.630748,13.18723,24.704303,21.713192,7.245344,8.737963,12.814813,18.303795,16.779883,28.310971.744833-.621679,1.538394-1.277665,2.443705-2.034059,4.403492-3.652754,6.901642-11.408151,4.669876-16.917177-.776407-1.939463-1.653003-3.838993-2.587152-5.698311-5.007861-9.849651-12.196025-18.518967-20.956767-25.26299-1.650393-1.26626-3.351999-2.475294-5.119735-3.606932" fill="#284063" stroke-width="0"/><path d="M1388.706717,347.732981c-7.070572-8.526055-15.430556-15.846028-24.704303-21.716237-6.176697-3.916497-12.751791-7.199616-19.647715-9.740791-16.699582-6.171119-34.834633-8.021891-52.433932-5.331628-18.745263,2.864896-36.41902,10.780677-51.090323,22.94808-44.578252,36.966365-50.775087,103.249356-13.809002,147.827639,11.780599,14.207274,26.927367,24.833176,44.489499,30.21653,38.945885,11.935234,71.116048,9.139063,103.521396-17.65362,35.886126-29.669279,46.795847-77.742791,30.534439-118.808629-3.965069-10.007269-9.614715-19.006241-16.860183-27.741345M1319.836604,494.858702h0c-28.445748,3.472326-55.874684-6.466016-74.092771-28.440185-28.351277-34.178554-23.509611-85.062562,10.666083-113.408463,11.253423-9.333973,24.813194-15.536556,39.180821-17.728265,28.259664-4.320254,56.018008,6.067962,74.230377,28.042131,28.345683,34.178647,23.481021,85.360738-10.694673,113.700423-11.256282,9.333973-25.125447,16.092354-39.289587,17.834172" fill="#33558a" stroke-width="0"/><path d="M1317.81827,347.009683c1.645172,5.10976,3.636035,9.868079,5.226886,15.036075,4.955529,1.576649,9.965378,3.110319,13.727085,5.883556,4.858571-2.227757,9.656978-4.509772,14.381176-6.860404,4.38149,3.347275,7.926161,7.540226,11.764812,11.436057-2.176574,4.903942-4.461542,9.693835-6.860746,14.380803,2.339289,4.087167,4.487149,8.365671,5.555423,13.723791,4.961122,2.007893,10.19385,3.74735,15.360697,5.558095v16.34c-5.106932,1.645079-9.871031,3.638707-15.038126,5.229589-1.573821,4.955466-3.104757,9.968082-5.877993,13.723884,2.225053,4.85537,4.504303,9.653809,6.860746,14.380679-3.350383,4.387052-7.540568,7.925757-11.436399,11.764563-4.909909-2.176419-9.69688-4.461293-14.381176-6.863263-4.09012,2.336181-8.374527,4.484103-13.727085,5.555143-2.005158,4.966778-3.747536,10.196367-5.555423,15.363245h-16.343449c-1.642189-5.112494-3.63877-9.870813-5.226886-15.034739-4.958388-1.582336-9.965378-3.107554-13.724102-5.883649-4.858571,2.22785-9.659962,4.507006-14.384159,6.863263-4.384349-3.347368-7.926036-7.543085-11.767671-11.438916,2.179309-4.903942,4.469995-9.6966,6.866339-14.377851-2.339289-4.089902-4.490008-8.36853-5.555423-13.732337-4.964106-1.999347-10.199692-3.744491-15.360821-5.549549v-16.34c5.104073-1.650983,9.868296-3.641566,15.035143-5.229589,1.57668-4.958325,3.104757-9.96513,5.880977-13.726619-2.225053-4.855463-4.507162-9.653933-6.866339-14.380803,3.355977-4.384193,7.543302-7.922898,11.439258-11.761704,4.90705,2.17356,9.702722,4.464246,14.383911,6.860404,4.087261-2.341993,8.368809-4.486962,13.724226-5.555143,2.199198-4.890921,3.487367-10.680378,5.886695-15.364457h16.012053l.000373-.000124ZM1288.938326,399.155788c-7.377231,9.800861-7.136578,26.40044,2.294788,35.73146,14.081105,13.935078,37.444533,6.474687,43.925031-8.526055,5.068149-11.729012-.40399-24.712911-5.898752-30.153383-4.670001-4.626867-12.6429-8.414336-22.61872-7.210912-8.119206.97402-13.85487,5.047949-17.702347,10.158889" fill="#3bb54a" stroke-width="0"/><path d="M622.063053,243.687549c-.326673-.028621-34.927465,1.165381-34.927465,1.165381-.061096,0-14.71366,6.293326-24.880101,6.293326-10.18692,0-18.222275-9.158315-18.222275-9.158315h-23.302457v45.838825h24.803343s6.946166-8.52809,18.133055-8.52809c11.192669,0,21.372255,1.483265,21.372255,1.483265l2.023151,21.163408.00867.206097h36.69676s-.15126-19.587582,9.801439-26.466212c12.519714-8.666379,32.741021-3.61554,39.529711,8.659028,0,0,2.413757-37.714947-49.821445-40.618998" fill="#939598" stroke-width="0"/><path d="M602.234779,497.936516c0,1.74272-1.560862,3.779327-3.319058,3.779327h-.159452c-1.755244,0-2.251374-2.036514-2.251374-3.779327v-185.532357c0-1.736924.496131-2.638521,2.251374-2.638521h.159452c1.758196,0,3.319058.901613,3.319058,2.638521v185.532357h0Z" fill="#26a9e1" stroke-width="0"/><path d="M613.694578,497.866968c.37627,1.733366-1.033282,3.758879-2.763665,3.848875h-.160477c-1.733366-.090028-3.773112-2.115541-2.805742-3.848875v-184.526686c-.967401-1.727555,1.072469-2.624273,2.805742-3.574753h.160477c1.730414.95048,3.139935,1.847198,2.763665,3.574753v184.526686h0Z" fill="#26a9e1" stroke-width="0"/><path d="M399.440228,270.836365c-6.334316-12.24469-18.09776-19.845297-30.820899-21.395251l-.000062.000124,9.382638,18.137786c5.881722,11.376671,1.432424,25.36318-9.944122,31.247761-11.376609,5.881722-25.360383,1.42391-31.247761-9.938528l-8.972992-17.349944c-5.417631,11.035765-5.724104,24.397706.355263,36.146793,3.557039,6.878708,8.832528,12.287824,15.02669,15.987316l-19.399478,135.928671c-11.612601,4.446501-20.365388,15.102578-21.727269,28.318709-1.922309,18.707972,11.683144,35.43055,30.38546,37.352983,18.705113,1.928089,35.433409-11.668911,37.358639-30.379742,1.153547-11.208176-3.269771-21.701414-11.021905-28.730344l19.934548-139.679252c1.177911-.473974,2.345193-1.002144,3.495881-1.597252,19.67357-10.181979,27.373558-34.379119,17.195371-54.04983ZM343.562063,508.177728l-18.447305-1.902296-7.620682-16.530776,10.826623-14.634012,18.450164,1.896702,7.620682,16.536308-10.829482,14.634074Z" fill="#3bb54a" stroke-width="0"/><path d="M336.660197,460.141475c-.128919,1.254855-2.692998,2.016967-4.125562,1.873675-1.438142-.151838-3.79603-1.420926-3.664268-2.675782l19.564664-129.237477c.128919-1.251903,2.690154-2.019702,4.128297-1.870831,1.435299.146229,3.787376,1.421035,3.658456,2.673047l-19.561711,129.237399h0l.000124-.000031Z" fill="#009447" stroke-width="0"/><path d="M1059.432447,503.750415l-48.973042-204.946426c-.504242-1.7189-2.561235-2.575499-4.581061-1.910951l-30.302486,9.935592c-2.019702.661891-3.171508,2.578451-2.558314,4.251622l73.035561,197.059266c.607415,1.675937,2.761925,2.506852,4.775846,1.847819l5.841572-1.919512c2.014108-.658846,3.263183-2.601261,2.761863-4.317286" fill="#33558a" stroke-width="0"/><path d="M988.556866,295.240532c-11.559958,3.787485-23.294688-.355185-28.374211-15.820158-5.973273-18.206558,9.205069-42.612949,4.051026-58.326997,5.154043,15.714048,31.840694,26.391676,37.811356,44.595391,5.073804,15.464879-1.93101,25.755749-13.488172,29.55178" fill="#3bb54a" stroke-width="0"/><path d="M1133.155841,503.486439l44.148531-203.943396c.441157-1.736101,2.46956-2.664392,4.509399-2.074178l30.640471,8.855478c2.039839.584511,3.260262,2.46378,2.707479,4.154168l-68.474699,196.918522c-.552969,1.696075-2.673047,2.601354-4.709965,2.014108l-5.904657-1.70748c-2.039777-.590105-3.351937-2.483948-2.916435-4.21719" fill="#33558a" stroke-width="0"/><path d="M1198.180906,294.313266c11.683144,3.374762,23.269082-1.180521,27.789793-16.820126,5.323097-18.404311-10.712076-42.254812-6.1225-58.146662-4.589576,15.89185-30.883983,27.506316-36.201239,45.916329-4.517976,15.631059,2.847695,25.669699,14.533698,29.050475" fill="#f15a2b" stroke-width="0"/><polygon points="778.519944 104.660259 787.799409 123.459977 808.544298 126.4768 793.535011 141.107992 797.076077 161.775478 778.519944 152.020439 759.96381 161.775478 763.504814 141.107992 748.492606 126.4768 769.240416 123.459977 778.519944 104.660259 778.519944 104.660259" fill="#35b2e0" stroke-width="0"/><polygon points="1023.585908 176.261257 1028.805832 186.838579 1040.477478 188.531709 1032.031724 196.762657 1034.025757 208.391386 1023.585908 202.902109 1013.146121 208.391386 1015.140092 196.762657 1006.694275 188.531709 1018.368904 186.838579 1023.585908 176.261257 1023.585908 176.261257" fill="#33558a" stroke-width="0"/><polygon points="929.573257 74.545051 933.160253 81.819099 941.187722 82.982307 935.377599 88.640511 936.749922 96.633786 929.573257 92.860564 922.396529 96.633786 923.768914 88.640511 917.958915 82.982307 925.986384 81.819099 929.573257 74.545051 929.573257 74.545051" fill="#3bb54a" stroke-width="0"/><polygon points="150.402907 236.859587 223.051736 262.208425 290.635521 231.791594 219.674022 213.20673 150.402907 236.859587 150.402907 236.859587" fill="#f79520" stroke-width="0"/><path d="M168.987149,248.690032l1.687432,33.789045s46.182613,38.859788,99.685192,1.690186l-1.123092-35.479324-47.875852,20.275142-52.373796-20.275142h0l.000117.000093Z" fill="#f79520" stroke-width="0"/><path d="M238.944402,238.892216s18.971606,2.919279,21.890978,42.323646l5.838744-13.135706,17.513295,11.677302s-17.513295-49.623358-45.243018-40.865242" fill="#33558a" stroke-width="0"/><path d="M622.063053,243.687549v-4.84251c0-3.011016-2.440877-5.451892-5.451908-5.451892h-25.666856c-1.800677,0-3.260293,1.45974-3.260293,3.260309v8.199382s31.514892-1.197156,34.379057-1.165288Z" fill="#33558a" stroke-width="0"/><path d="M629.273467,392.711587c68.813728-68.591163,168.547141-128.791633,194.284487-143.706095-.293158.169881-4.099341-5.355603-4.454168-5.851477-1.592676-2.225776-3.078179-4.528189-4.450847-6.895974-2.745378-4.735642-5.039535-9.733004-6.837464-14.903278-.582423-1.674863-1.256367-3.41635-1.612681-5.156231-.072745-.355214-.866482-3.276028-.648761-3.406886-62.433618,37.590716-135.312431,104.024317-183.264683,160.186394v-70.912872l-33.973409.032107-.40571,202.435156c0,3.669846,3.002641,6.672548,6.672548,6.672548h21.091513c3.638272,0,6.615058-2.976847,6.615058-6.61512v-53.548385l59.559658,60.163505h70.149801l-118.47723-114.453989-.399453-.379813-3.848658-3.659591Z" fill="#33558a" stroke-width="0"/><path d="M802.631405,189.625489c-81.84907,45.473556-151.838133,130.872689-180.336276,173.489538v4.010316c73.228108-97.432334,160.336841-154.430841,181.309829-166.809096-1.071692-5.845239-1.031356-9.49675-.973554-10.690758Z" fill="#f79520" stroke-width="0"/><path d="M832.821939,257.604364c-88.403778,41.84679-170.172928,108.354607-200.409844,138.091694l1.662535,1.580792c85.228353-80.229816,192.60975-125.24359,210.946238-131.073477-.794928-.565586-7.212572-3.345583-12.198928-8.599008Z" fill="#f79520" stroke-width="0"/><path d="M1852.417826,324.757374c-12.449855,0-22.578694-10.13033-22.578694-22.582174,0-12.451347,10.128839-22.581677,22.578694-22.581677,12.451844,0,22.582174,10.13033,22.582174,22.581677,0,12.451844-10.13033,22.582174-22.582174,22.582174ZM1852.417826,282.639483c-10.770251,0-19.532733,8.763477-19.532733,19.535716s8.762482,19.536213,19.532733,19.536213c10.77224,0,19.536213-8.763974,19.536213-19.536213s-8.763974-19.535716-19.536213-19.535716Z" fill="#345589" stroke-width="0"/><path d="M1844.978245,289.517202h8.741927c1.591334,0,2.900095.217135,3.932231.649919,1.029162.432783,1.841188.983058,2.439054,1.649336.594891.667765,1.011315,1.417328,1.246297,2.247202.232008.831361.350986,1.632977.350986,2.404848,0,.795667-.139799,1.56159-.422373,2.299255-.279599.737665-.684125,1.403943-1.210604,2.000322-.526479.597866-1.171936,1.100549-1.930422,1.509537-.761461.410475-1.609181.661817-2.546135.755512l7.05541,11.338628h-4.21183l-6.317745-10.951948h-3.756738v10.951948h-3.370059v-24.854557ZM1848.348304,300.470637h4.423017c.65438,0,1.305786-.05354,1.948269-.157646.642483-.105593,1.216553-.298933,1.719236-.580019s.907209-.684125,1.213578-1.210604c.303395-.526479.455092-1.212091.455092-2.053862,0-.843258-.151697-1.527383-.455092-2.053862-.306369-.526479-.710895-.929518-1.213578-1.210604s-1.076753-.474426-1.719236-.580019-1.293889-.157646-1.948269-.157646h-4.423017v8.004262Z" fill="#345589" stroke-width="0"/><path d="M601.486864,497.254239c0,1.761599-1.566513,3.82016-3.331,3.82016h-.160121c-1.761555,0-2.259468-2.058561-2.259468-3.82016v-187.538478c0-1.755735.497913-2.667101,2.259468-2.667101h.160121c1.764487,0,3.331.911367,3.331,2.667101v187.538478Z" fill="#27aae1" stroke-width="0"/><path d="M607.860272,310.86882c0-1.761599,1.566513-3.82016,3.331-3.82016h.160121c1.761555,0,2.259468,2.058561,2.259468,3.82016v187.538478c0,1.755735-.497913,2.667101-2.259468,2.667101h-.160121c-1.764487,0-3.331-.911367-3.331-2.667101v-187.538478Z" fill="#27aae1" stroke-width="0"/><path d="M822.927011,175.794313c2.776571,5.315395,11.028342,1.683186,21.139611-2.921072,10.117095-4.604362,10.314637,1.037649,10.314637,1.037649l13.386012-10.270145c-2.184237-8.859096-5.630744-11.430331-10.283877-12.781388-14.67742-4.269229-36.667392,20.901186-34.55651,24.93506l.000127-.000103Z" fill="#33558a" stroke-width="0"/><path d="M881.230355,226.670943s4.820848,2.321434-4.867001,7.754765c-9.702541,5.43623-17.51056,9.938176-14.868235,15.326513,2.648024,5.382542,62.542539-5.110975,37.066368-28.616523l-17.331132,5.535245Z" fill="#33558a" stroke-width="0"/><g clip-path="url(#uuid-5d7dd487-2fad-4b58-b0e7-5d365a211565)"><rect x="904.353828" y="121.06911" width="90.181989" height="66.781473" transform="translate(108.051722 -311.760021) rotate(19.750864)" fill="#fff" stroke-width="0"/><path d="M940.451959,121.734528c-2.489481.277348-4.83336.744919-6.938057,1.45165l-.000033.000093c-17.438,5.857247-66.664958,39.139442-88.827592,58.859844,0,0-.965309,9.586271,7.799359,26.352462,7.885946,15.105393,17.148644,21.395143,17.148644,21.395143,28.837127-6.918052,84.300082-28.273424,99.069385-39.24777,1.781653-1.322701,3.506331-2.971268,5.156139-4.854315-17.183237-19.075028-27.568263-38.959996-33.407846-63.957108Z" fill="#f79520" stroke-width="0"/><path d="M989.365568,136.900309c-2.37963-4.55924-10.98232-9.150212-21.24034-12.132433-7.513074-2.183855-15.907124-3.495908-23.409549-3.315353,5.829605,23.886095,15.53434,42.474629,31.817751,60.901516,10.492956-14.315866,16.964191-37.54486,12.832138-45.45373Z" fill="#f79520" stroke-width="0"/><path d="M867.636824,159.238845c-.671628-2.457777-.981162-3.69243-1.559385-6.170662,2.358491-.554899,3.534951-.829344,5.893443-1.381339.560737,2.396574.86729,3.587445,1.509716,5.951849-2.338029.639454-3.505682.957887-5.84371,1.600255" fill="#64aab4" stroke-width="0"/><path d="M861.798813,160.827478c-.692091-2.53964-1.022019-3.812161-1.620769-6.377957,2.352665-.557804,3.537863-.835361,5.896482-1.381339.581136,2.481137.89067,3.712981,1.562298,6.170662-2.341069.63666-3.505682.954982-5.838012,1.588634" fill="#fff" stroke-width="0"/><path d="M867.636824,159.238845c.671501,2.451966,1.027832,3.674995,1.784252,6.097799-2.317819.721215-3.47369,1.080422-5.785493,1.798731-.782455-2.504462-1.147592-3.768367-1.836643-6.307905,2.329353-.633643,3.496943-.951973,5.838012-1.588634" fill="#64aab4" stroke-width="0"/><path d="M873.477684,157.63787c.651292,2.370213.989951,3.549453,1.725717,5.887599-2.320479.727026-3.476412,1.092042-5.785365,1.813257-.75338-2.422804-1.109584-3.645833-1.784125-6.100704,2.335116-.639454,3.505681-.960689,5.84371-1.600255" fill="#fff" stroke-width="0"/><path d="M871.415185,171.352359c-.843744-2.387728-1.240919-3.593219-1.997212-6.013016,2.311803-.724326,3.464886-1.089239,5.785365-1.813257.727155,2.346862,1.109571,3.508564,1.924177,5.81454-2.29134.808778-3.426815,1.208971-5.712457,2.011732" fill="#64aab4" stroke-width="0"/><path d="M865.699878,173.365651c-.867183-2.475299-1.281841-3.721658-2.061509-6.232033,2.308891-.715404,3.467674-1.074508,5.782581-1.79562.756166,2.422598,1.153278,3.628192,1.994109,6.013016-2.288364.808778-3.426815,1.21167-5.715243,2.01474" fill="#fff" stroke-width="0"/><path d="M871.415185,171.352359c.840958,2.396547,1.287717,3.587405,2.20745,5.943067-2.25929.884727-3.386021,1.328488-5.636446,2.207302-.963499-2.43731-1.415962-3.666139-2.286184-6.138533,2.285515-.799959,3.423966-1.205962,5.715243-2.011835" fill="#64aab4" stroke-width="0"/><path d="M877.127642,169.342392c.805867,2.308882,1.241033,3.461864,2.131438,5.735766-2.259289.890641-3.383108,1.328591-5.636445,2.21612-.919733-2.355662-1.366492-3.546512-2.210236-5.943066,2.288428-.799959,3.423966-1.202954,5.715244-2.008827" fill="#fff" stroke-width="0"/><path d="M876.03728,183.138036c-1.001484-2.314777-1.483198-3.488192-2.414646-5.84375,2.253463-.887529,3.380069-1.32859,5.636445-2.21612.896358,2.276806,1.360652,3.406449,2.329959,5.645276-2.221285.972186-3.327685,1.453925-5.551885,2.414594" fill="#64aab4" stroke-width="0"/><path d="M870.482482,185.548791c-1.042337-2.396528-1.547359-3.604913-2.49642-6.04513,2.250488-.878814,3.380069-1.325582,5.636446-2.207405.928535,2.352653,1.410249,3.526069,2.411732,5.840845-2.218373.966376-3.333385,1.45102-5.551758,2.411689" fill="#fff" stroke-width="0"/><path d="M876.03728,183.138036c1.010287,2.320483,1.538734,3.476361,2.624819,5.756054-2.189235,1.042428-3.281002,1.567948-5.467071,2.610163-1.124089-2.358547-1.670081-3.552404-2.709633-5.954639,2.218373-.963573,3.333512-1.448218,5.551885-2.411689" fill="#64aab4" stroke-width="0"/><path d="M881.589038,180.72603c.975069,2.238826,1.486097,3.350923,2.537155,5.554675-2.189234,1.048136-3.283789,1.570854-5.467071,2.613068-1.086022-2.27959-1.614659-3.432571-2.621906-5.756054,2.224199-.963574,3.330599-1.44521,5.551885-2.411689" fill="#fff" stroke-width="0"/><path d="M881.482462,194.545857c-1.173663-2.24472-1.734277-3.368544-2.823275-5.651039,2.186195-1.04523,3.277899-1.567948,5.467071-2.613171,1.054161,2.203855,1.597104,3.292604,2.727,5.458479-2.148445,1.123974-3.228367,1.681655-5.370796,2.80573" fill="#64aab4" stroke-width="0"/><path d="M876.123191,197.345673c-1.220404-2.311747-1.801288-3.482248-2.92829-5.843598,2.186196-1.036618,3.274987-1.565043,5.467071-2.610163,1.088999,2.285511,1.6467,3.412129,2.823212,5.654047-2.151231,1.123974-3.22539,1.684559-5.362057,2.799816" fill="#fff" stroke-width="0"/><path d="M881.482462,194.545857c1.167899,2.238705,1.775057,3.34799,3.021668,5.548818-2.104425,1.200025-3.155339,1.804288-5.256979,2.992581-1.296329-2.270966-1.91812-3.420921-3.12681-5.744385,2.139517-1.112455,3.210763-1.67304,5.361994-2.797014" fill="#64aab4" stroke-width="0"/><path d="M886.853257,191.738876c1.126857,2.16878,1.713746,3.237087,2.92533,5.359164-2.110378,1.202931-3.166929,1.798479-5.27452,2.998393-1.246611-2.203836-1.853896-3.312915-3.021669-5.551834,2.145342-1.123973,3.219564-1.681654,5.370796-2.80573" fill="#fff" stroke-width="0"/><path d="M887.730397,205.534638c-1.328489-2.160045-1.973704-3.243078-3.226267-5.437992,2.107528-1.200025,3.164142-1.798479,5.27452-3.001298,1.203035,2.127793,1.827602,3.178657,3.106435,5.259857-2.054771,1.264138-3.091053,1.906373-5.154625,3.179433" fill="#64aab4" stroke-width="0"/><path d="M882.575582,208.709298c-1.366364-2.22416-2.037864-3.347973-3.328367-5.621836,2.10164-1.191206,3.149514-1.795572,5.259893-2.989573,1.24661,2.19201,1.897651,3.277844,3.223227,5.43789-2.060786,1.269949-3.088266,1.906372-5.154879,3.17352" fill="#fff" stroke-width="0"/><path d="M887.730397,205.534638c1.331148,2.151116,2.01727,3.216619,3.421492,5.321151-2.013981,1.342881-3.015113,2.023092-5.03511,3.363172-1.453814-2.177464-2.166284-3.283731-3.541261-5.510899,2.06655-1.26414,3.094093-1.900563,5.154879-3.173425" fill="#64aab4" stroke-width="0"/><path d="M892.887935,202.354065c1.287571,2.075279,1.947283,3.105717,3.301977,5.143111-2.014044,1.342992-3.021067,2.008559-5.03511,3.357362-1.407199-2.107429-2.090345-3.169924-3.421619-5.321151,2.063636-1.26995,3.099791-1.912286,5.154752-3.17933" fill="#fff" stroke-width="0"/><path d="M894.766264,216.059768c-1.480146-2.054924-2.204263-3.099874-3.614248-5.204295,2.014043-1.348803,3.021066-2.017394,5.038023-3.363172,1.360647,2.040212,2.055249,3.044271,3.488717,5.029066-1.961476,1.413011-2.945063,2.125485-4.912429,3.538402" fill="#64aab4" stroke-width="0"/><path d="M889.853772,219.606576c-1.532651-2.127856-2.280012-3.210784-3.73693-5.388247,2.01987-1.342993,3.021129-2.017394,5.038023-3.363172,1.407199,2.107429,2.128339,3.149482,3.611398,5.2042-1.967365,1.418932-2.950889,2.128399-4.912428,3.54722" fill="#fff" stroke-width="0"/><path d="M894.766264,216.059768c1.483059,2.054924,2.24213,3.073621,3.795224,5.07593-1.908971,1.488966-2.863298,2.230489-4.772142,3.722242-1.611615-2.078263-2.402731-3.123206-3.935636-5.253864,1.964452-1.416019,2.948103-2.122477,4.912428-3.544323" fill="#64aab4" stroke-width="0"/><path d="M899.681542,212.519086c1.430555,1.9907,2.166254,2.965625,3.666843,4.900812-1.914734,1.485959-2.866338,2.227576-4.783985,3.716433-1.556007-1.999522-2.312164-3.021006-3.795224-5.078843,1.964453-1.410114,2.95089-2.116667,4.912429-3.538402" fill="#fff" stroke-width="0"/><path d="M902.552378,226.084843c-1.628954-1.949803-2.425955-2.942153-3.987851-4.941563,1.917773-1.494777,2.869251-2.233292,4.78696-3.722243,1.500463,1.935187,2.277195,2.886645,3.850669,4.772351-1.856466,1.555977-2.787549,2.332565-4.649715,3.891455" fill="#64aab4" stroke-width="0"/><path d="M897.908488,229.964978c-1.684435-2.016829-2.513545-3.035615-4.119143-5.107863,1.911757-1.491864,2.863298-2.236394,4.775182-3.722353,1.558984,2.008229,2.35896,2.997554,3.987851,4.947468-1.85634,1.550167-2.78166,2.332564-4.64389,3.882747" fill="#fff" stroke-width="0"/><path d="M902.552378,226.084843c1.634844,1.949913,2.469837,2.907176,4.174715,4.804474-1.800796,1.620201-2.699895,2.431758-4.497905,4.052053-1.769098-1.964418-2.630249-2.956762-4.3207-4.970788,1.859316-1.558985,2.784636-2.335572,4.643889-3.885755" fill="#64aab4" stroke-width="0"/><path d="M907.202093,222.194734c1.570624,1.882682,2.376357,2.810802,4.025818,4.640868-1.803835,1.623209-2.696982,2.434765-4.500881,4.055061-1.704878-1.9001-2.542658-2.854671-4.174715-4.804379,1.859252-1.561898,2.793375-2.338375,4.649715-3.891566" fill="#fff" stroke-width="0"/></g></svg>